<?xml version="1.0" standalone="no"?>
<!DOCTYPE svg PUBLIC "-//W3C//DTD SVG 1.1//EN" "http://www.w3.org/Graphics/SVG/1.1/DTD/svg11.dtd" >
<svg xmlns="http://www.w3.org/2000/svg">
<metadata></metadata>
<defs>
<font id="no_biggie_one_boldregular" horiz-adv-x="1792" >
<font-face units-per-em="2048" ascent="1638" descent="-410" />
<missing-glyph horiz-adv-x="512" />
<glyph horiz-adv-x="0" />
<glyph horiz-adv-x="0" />
<glyph horiz-adv-x="682" />
<glyph unicode="&#xd;" horiz-adv-x="0" />
<glyph unicode=" "  horiz-adv-x="512" />
<glyph unicode="&#x09;" horiz-adv-x="512" />
<glyph unicode="&#xa0;" horiz-adv-x="512" />
<glyph unicode="!" horiz-adv-x="768" d="M-6 -6v268h524v-268h-524zM-6 506v1292h524v-1292h-524z" />
<glyph unicode="&#x22;" horiz-adv-x="1024" d="M-6 1274v524h268v-524h-268zM506 1274v524h268v-524h-268z" />
<glyph unicode="#" horiz-adv-x="1536" d="M-6 506v268h256v244h-256v268h256v256h268v-256h244v256h268v-256h256v-268h-256v-244h256v-268h-256v-256h-268v256h-244v-256h-268v256h-256zM518 774h244v244h-244v-244z" />
<glyph unicode="$" horiz-adv-x="1536" d="M-6 250v268h512v244h-256v256h-256v268h256v256h256v256h268v-256h512v-268h-512v-244h256v-256h256v-268h-256v-256h-256v-256h-268v256h-512zM262 1030h244v244h-244v-244zM774 518h244v244h-244v-244z" />
<glyph unicode="%" d="M-6 -6v268h256v256h256v256h256v256h256v256h256v256h268v-268h-256v-256h-256v-256h-256v-256h-256v-256h-256v-256h-268zM-6 1274v268h268v-268h-268zM1274 -6v268h268v-268h-268z" />
<glyph unicode="&#x26;" horiz-adv-x="1536" d="M-6 250v524h256v244h-256v524h256v256h524v-256h256v-268h-256v-256h-256v-244h256v-256h244v256h268v-268h-256v-244h256v-268h-268v256h-244v-256h-524v256h-256zM262 262h500v244h-256v256h-244v-500zM262 1030h244v256h256v244h-500v-500z" />
<glyph unicode="'" horiz-adv-x="512" d="M-6 1274v524h268v-524h-268z" />
<glyph unicode="(" horiz-adv-x="768" d="M-6 250v1292h256v256h268v-268h-256v-1268h256v-268h-268v256h-256z" />
<glyph unicode=")" horiz-adv-x="768" d="M-6 -6v268h256v1268h-256v268h268v-256h256v-1292h-256v-256h-268z" />
<glyph unicode="*" horiz-adv-x="1536" d="M-6 762v268h256v244h-256v268h268v-256h244v512h268v-512h244v256h268v-268h-256v-244h256v-268h-268v256h-244v-512h-268v512h-244v-256h-268z" />
<glyph unicode="+" horiz-adv-x="1536" d="M-6 762v268h512v512h268v-512h512v-268h-512v-512h-268v512h-512z" />
<glyph unicode="," horiz-adv-x="512" d="M-6 -262v524h268v-524h-268z" />
<glyph unicode="-" horiz-adv-x="1280" d="M250 762v268h780v-268h-780z" />
<glyph unicode="." horiz-adv-x="512" d="M-6 -6v268h268v-268h-268z" />
<glyph unicode="/" horiz-adv-x="2048" d="M-6 -6v268h256v256h256v256h256v256h256v256h256v256h256v256h268v-268h-256v-256h-256v-256h-256v-256h-256v-256h-256v-256h-256v-256h-268z" />
<glyph unicode="0" d="M-6 250v1292h256v256h1036v-256h256v-1292h-256v-256h-1036v256h-256zM518 262h500v500h-244v-256h-256v-244zM518 1030h244v256h256v244h-500v-500z" />
<glyph unicode="1" horiz-adv-x="768" d="M-6 -6v1804h524v-1804h-524z" />
<glyph unicode="2" d="M-6 -6v268h256v256h256v256h256v256h256v500h-500v-256h-524v268h256v256h1036v-256h256v-524h-256v-256h-256v-256h-256v-244h768v-268h-1548z" />
<glyph unicode="3" d="M-6 250v268h524v-256h500v500h-768v268h768v500h-500v-256h-524v268h256v256h1036v-256h256v-524h-256v-244h256v-524h-256v-256h-1036v256h-256z" />
<glyph unicode="4" d="M-6 506v524h256v256h256v256h256v256h780v-1804h-524v512h-1024zM518 774h500v500h-244v-256h-256v-244z" />
<glyph unicode="5" d="M-6 -6v268h1024v500h-1024v1036h1548v-268h-1024v-500h768v-256h256v-524h-256v-256h-1292z" />
<glyph unicode="6" d="M-6 250v1292h256v256h1036v-256h256v-268h-524v256h-500v-500h768v-256h256v-524h-256v-256h-1036v256h-256zM518 262h500v500h-500v-500z" />
<glyph unicode="7" d="M-6 -6v268h256v256h256v256h256v256h256v500h-1024v268h1548v-780h-256v-256h-256v-256h-256v-256h-256v-256h-524z" />
<glyph unicode="8" d="M-6 250v524h256v244h-256v524h256v256h1036v-256h256v-524h-256v-244h256v-524h-256v-256h-1036v256h-256zM518 262h500v500h-500v-500zM518 1030h500v500h-500v-500z" />
<glyph unicode="9" d="M-6 250v268h524v-256h500v500h-768v256h-256v524h256v256h1036v-256h256v-1292h-256v-256h-1036v256h-256zM518 1030h500v500h-500v-500z" />
<glyph unicode=":" horiz-adv-x="512" d="M-6 -6v268h268v-268h-268zM-6 1018v268h268v-268h-268z" />
<glyph unicode=";" horiz-adv-x="512" d="M-6 -262v524h268v-524h-268zM-6 1018v268h268v-268h-268z" />
<glyph unicode="&#x3c;" horiz-adv-x="1024" d="M-6 762v268h256v256h256v256h268v-268h-256v-256h-256v-244h256v-256h256v-268h-268v256h-256v256h-256z" />
<glyph unicode="=" horiz-adv-x="1536" d="M-6 506v268h1292v-268h-1292zM-6 1018v268h1292v-268h-1292z" />
<glyph unicode="&#x3e;" horiz-adv-x="1024" d="M-6 250v268h256v256h256v244h-256v256h-256v268h268v-256h256v-256h256v-268h-256v-256h-256v-256h-268z" />
<glyph unicode="?" d="M-6 1530v268h1292v-256h256v-524h-256v-256h-512v-256h-524v524h768v500h-1024zM250 -6v268h524v-268h-524z" />
<glyph unicode="@" horiz-adv-x="2048" d="M-6 506v780h256v256h256v256h780v-256h256v-256h256v-524h-256v-256h-268v256h-244v-256h-268v256h-256v268h256v256h268v-256h256v-256h244v500h-256v256h-756v-256h-256v-756h256v-256h768v-268h-780v256h-256v256h-256zM774 774h244v244h-244v-244z" />
<glyph unicode="A" d="M-6 -6v1292h256v256h256v256h524v-256h256v-256h256v-1292h-524v512h-500v-512h-524zM518 774h500v500h-500v-500z" />
<glyph unicode="B" d="M-6 -6v1804h1292v-256h256v-524h-256v-244h256v-524h-256v-256h-1292zM518 262h500v500h-500v-500zM518 1030h500v500h-500v-500z" />
<glyph unicode="C" d="M-6 250v1292h256v256h1036v-256h256v-268h-524v256h-500v-1268h500v256h524v-268h-256v-256h-1036v256h-256z" />
<glyph unicode="D" d="M-6 -6v1804h1292v-256h256v-1292h-256v-256h-1292zM518 262h500v1268h-500v-1268z" />
<glyph unicode="E" d="M-6 250v1292h256v256h1292v-268h-1024v-500h1024v-268h-1024v-500h1024v-268h-1292v256h-256z" />
<glyph unicode="F" d="M-6 -6v1548h256v256h1036v-268h-768v-500h768v-268h-768v-768h-524z" />
<glyph unicode="G" d="M-6 250v1292h256v256h1036v-256h256v-268h-524v256h-500v-1268h500v500h-256v268h780v-780h-256v-256h-1036v256h-256z" />
<glyph unicode="H" d="M-6 -6v1804h524v-768h500v768h524v-1804h-524v768h-500v-768h-524z" />
<glyph unicode="I" horiz-adv-x="768" d="M-6 -6v1804h524v-1804h-524z" />
<glyph unicode="J" d="M-6 -6v268h1024v1536h524v-1548h-256v-256h-1292z" />
<glyph unicode="K" d="M-6 -6v1804h524v-512h244v256h256v256h524v-268h-256v-256h-256v-256h-256v-244h256v-256h256v-256h256v-268h-524v256h-256v256h-244v-512h-524z" />
<glyph unicode="L" d="M-6 -6v1804h524v-1536h1024v-268h-1548z" />
<glyph unicode="M" horiz-adv-x="2304" d="M-6 -6v1804h1804v-256h256v-1548h-524v1536h-244v-1536h-524v1536h-244v-1536h-524z" />
<glyph unicode="N" d="M-6 -6v1804h524v-512h256v-256h244v768h524v-1804h-524v512h-256v256h-244v-768h-524z" />
<glyph unicode="O" d="M-6 250v1292h256v256h1036v-256h256v-1292h-256v-256h-1036v256h-256zM518 262h500v1268h-500v-1268z" />
<glyph unicode="P" d="M-6 -6v1804h1292v-256h256v-524h-256v-256h-768v-768h-524zM518 1030h500v500h-500v-500z" />
<glyph unicode="Q" d="M-6 250v1292h256v256h1036v-256h256v-1292h-256v-244h256v-268h-524v256h-768v256h-256zM518 262h244v256h256v1012h-500v-1268z" />
<glyph unicode="R" d="M-6 -6v1804h1292v-256h256v-524h-256v-256h-256v-244h256v-256h256v-268h-524v256h-256v256h-244v-512h-524zM518 1030h500v500h-500v-500z" />
<glyph unicode="S" d="M-6 250v268h524v-256h500v500h-768v256h-256v524h256v256h1036v-256h256v-268h-524v256h-500v-500h768v-256h256v-524h-256v-256h-1036v256h-256z" />
<glyph unicode="T" d="M-6 1530v268h1548v-268h-512v-1536h-524v1536h-512z" />
<glyph unicode="U" d="M-6 250v1548h524v-1536h500v1536h524v-1548h-256v-256h-1036v256h-256z" />
<glyph unicode="V" d="M-6 506v1292h524v-1280h500v1280h524v-1292h-256v-256h-256v-256h-524v256h-256v256h-256z" />
<glyph unicode="W" horiz-adv-x="2304" d="M-6 250v1548h524v-1536h244v1536h524v-1536h244v1536h524v-1804h-1804v256h-256z" />
<glyph unicode="X" d="M-6 -6v524h256v256h256v244h-256v256h-256v524h524v-512h500v512h524v-524h-256v-256h-256v-244h256v-256h256v-524h-524v512h-500v-512h-524z" />
<glyph unicode="Y" d="M-6 1274v524h524v-512h500v512h524v-524h-256v-256h-256v-1024h-524v1024h-256v256h-256z" />
<glyph unicode="Z" d="M-6 -6v524h256v256h256v256h256v256h256v244h-1024v268h1548v-524h-256v-256h-256v-256h-256v-256h-256v-244h1024v-268h-1548z" />
<glyph unicode="[" horiz-adv-x="768" d="M-6 -6v1804h524v-268h-256v-1268h256v-268h-524z" />
<glyph unicode="\" horiz-adv-x="2048" d="M-6 1530v268h268v-256h256v-256h256v-256h256v-256h256v-256h256v-256h256v-268h-268v256h-256v256h-256v256h-256v256h-256v256h-256v256h-256z" />
<glyph unicode="]" horiz-adv-x="768" d="M-6 -6v268h256v1268h-256v268h524v-1804h-524z" />
<glyph unicode="^" horiz-adv-x="1280" d="M250 1018v268h256v256h268v-256h256v-268h-268v256h-244v-256h-268z" />
<glyph unicode="_" horiz-adv-x="1536" d="M-6 -6v268h1292v-268h-1292z" />
<glyph unicode="`" horiz-adv-x="768" d="M506 2298v268h268v-256h256v-268h-268v256h-256z" />
<glyph unicode="a" d="M-6 250v268h256v256h768v244h-768v268h1036v-256h256v-780h-256v-256h-1036v256h-256zM518 262h500v244h-500v-244z" />
<glyph unicode="b" d="M-6 -6v1804h524v-512h768v-256h256v-780h-256v-256h-1292zM518 262h500v756h-500v-756z" />
<glyph unicode="c" d="M-6 250v780h256v256h1292v-268h-1024v-756h1024v-268h-1292v256h-256z" />
<glyph unicode="d" d="M-6 250v780h256v256h768v512h524v-1804h-1292v256h-256zM518 262h500v756h-500v-756z" />
<glyph unicode="e" d="M-6 250v780h256v256h1036v-256h256v-524h-1024v-244h768v-268h-1036v256h-256zM518 774h500v244h-500v-244z" />
<glyph unicode="f" horiz-adv-x="1536" d="M-6 762v268h256v512h256v256h780v-268h-512v-500h256v-268h-256v-768h-524v768h-256z" />
<glyph unicode="g" d="M-6 250v780h256v256h1036v-256h256v-1292h-256v-256h-1036v268h768v244h-768v256h-256zM518 262h500v756h-500v-756z" />
<glyph unicode="h" d="M-6 -6v1804h524v-512h768v-256h256v-1036h-524v1024h-500v-1024h-524z" />
<glyph unicode="i" horiz-adv-x="768" d="M-6 -6v1292h524v-1292h-524zM-6 1530v268h524v-268h-524z" />
<glyph unicode="j" horiz-adv-x="1024" d="M-6 -250h256v1536h524v-1548h-256v-256h-524v268zM250 1530v268h524v-268h-524z" />
<glyph unicode="k" horiz-adv-x="1536" d="M-6 -6v1804h524v-768h244v256h524v-268h-256v-256h-256v-244h256v-256h256v-268h-524v256h-244v-256h-524z" />
<glyph unicode="l" horiz-adv-x="768" d="M-6 -6v1804h524v-1804h-524z" />
<glyph unicode="m" horiz-adv-x="2304" d="M-6 -6v1292h1804v-256h256v-1036h-524v1024h-244v-1024h-524v1024h-244v-1024h-524z" />
<glyph unicode="n" d="M-6 -6v1292h1292v-256h256v-1036h-524v1024h-500v-1024h-524z" />
<glyph unicode="o" d="M-6 250v780h256v256h1036v-256h256v-780h-256v-256h-1036v256h-256zM518 262h500v756h-500v-756z" />
<glyph unicode="p" d="M-6 -518v1548h256v256h1036v-256h256v-780h-256v-256h-768v-512h-524zM518 262h500v756h-500v-756z" />
<glyph unicode="q" d="M-6 250v780h256v256h1036v-256h256v-1548h-524v512h-768v256h-256zM518 262h500v756h-500v-756z" />
<glyph unicode="r" horiz-adv-x="1536" d="M-6 -6v1036h256v256h1036v-268h-768v-1024h-524z" />
<glyph unicode="s" d="M-6 -6v268h1024v244h-768v256h-256v268h256v256h1292v-268h-1024v-244h768v-256h256v-268h-256v-256h-1292z" />
<glyph unicode="t" horiz-adv-x="1536" d="M-6 1018v268h256v512h524v-512h512v-268h-512v-756h512v-268h-780v256h-256v768h-256z" />
<glyph unicode="u" d="M-6 250v1036h524v-1024h500v1024h524v-1292h-1292v256h-256z" />
<glyph unicode="v" d="M-6 506v780h524v-768h500v768h524v-780h-256v-256h-256v-256h-524v256h-256v256h-256z" />
<glyph unicode="w" horiz-adv-x="2304" d="M-6 250v1036h524v-1024h244v1024h524v-1024h244v1024h524v-1292h-1804v256h-256z" />
<glyph unicode="x" d="M-6 -6v268h256v256h256v244h-256v256h-256v268h524v-256h500v256h524v-268h-256v-256h-256v-244h256v-256h256v-268h-524v256h-500v-256h-524z" />
<glyph unicode="y" d="M-6 250v1036h524v-1024h500v1024h524v-1548h-256v-256h-1036v268h768v244h-768v256h-256z" />
<glyph unicode="z" d="M-6 -6v268h256v256h256v256h256v244h-768v268h1548v-268h-256v-256h-256v-256h-256v-244h768v-268h-1548z" />
<glyph unicode="{" horiz-adv-x="768" d="M-6 250v524h256v244h-256v524h256v256h268v-268h-256v-500h256v-268h-256v-500h256v-268h-268v256h-256z" />
<glyph unicode="|" horiz-adv-x="1280" d="M506 -6v1804h268v-1804h-268z" />
<glyph unicode="}" horiz-adv-x="768" d="M-6 -6v268h256v500h-256v268h256v500h-256v268h268v-256h256v-524h-256v-244h256v-524h-256v-256h-268z" />
<glyph unicode="~" horiz-adv-x="1280" d="M-6 762v268h256v256h268v-256h244v256h268v-268h-256v-256h-268v256h-244v-256h-268z" />
<glyph unicode="&#xa1;" horiz-adv-x="512" d="M-6 -6v1292h268v-1292h-268zM-6 1530v268h268v-268h-268z" />
<glyph unicode="&#xa2;" horiz-adv-x="1536" d="M-6 506v780h256v256h256v256h268v-256h512v-268h-1024v-756h1024v-268h-512v-256h-268v256h-256v256h-256z" />
<glyph unicode="&#xa3;" horiz-adv-x="1024" d="M-6 250v1292h256v256h524v-268h-512v-500h512v-268h-512v-500h512v-268h-524v256h-256z" />
<glyph unicode="&#xa5;" horiz-adv-x="1536" d="M-6 506v268h256v244h-256v780h268v-768h256v-256h244v256h256v768h268v-780h-256v-244h256v-268h-268v256h-244v-768h-268v768h-244v-256h-268z" />
<glyph unicode="&#xa6;" horiz-adv-x="512" d="M-6 -6v780h268v-780h-268zM-6 1018v780h268v-780h-268z" />
<glyph unicode="&#xa7;" horiz-adv-x="1280" d="M-6 -6v268h768v244h-768v524h256v244h-256v268h256v256h780v-268h-768v-244h768v-524h-256v-244h256v-268h-256v-256h-780zM262 774h500v244h-500v-244z" />
<glyph unicode="&#xa8;" horiz-adv-x="1024" d="M250 2042v268h268v-268h-268zM762 2042v268h268v-268h-268z" />
<glyph unicode="&#xa9;" horiz-adv-x="2048" d="M-6 506v780h256v256h256v256h780v-256h256v-256h256v-780h-256v-256h-256v-256h-780v256h-256v256h-256zM262 518h256v-256h756v244h-512v256h-256v512h-244v-756zM518 1286h756v244h-756v-244zM774 774h512v-256h244v756h-244v-256h-512v-244z" />
<glyph unicode="&#xaa;" horiz-adv-x="1536" d="M-6 762v268h256v256h768v244h-768v268h780v-256h256v-1036h-1036v256h-256zM262 774h756v244h-756v-244z" />
<glyph unicode="&#xab;" horiz-adv-x="1536" d="M-6 506v268h256v256h268v-268h-256v-244h256v-268h-268v256h-256zM762 506v268h256v256h268v-268h-256v-244h256v-268h-268v256h-256z" />
<glyph unicode="&#xac;" horiz-adv-x="1280" d="M-6 762v268h1036v-524h-268v256h-768z" />
<glyph unicode="&#xad;" horiz-adv-x="1280" d="M250 762v268h780v-268h-780z" />
<glyph unicode="&#xae;" horiz-adv-x="2048" d="M-6 506v780h256v256h256v256h780v-256h256v-256h256v-780h-256v-256h-256v-256h-780v256h-256v256h-256zM262 518h244v756h-244v-756zM518 262h756v244h-256v256h-244v-256h-256v-244zM518 1286h244v244h-244v-244zM774 1030h244v244h-244v-244zM1030 774h256v-256h244 v756h-244v-256h-256v-244zM1030 1286h244v244h-244v-244z" />
<glyph unicode="&#xaf;" horiz-adv-x="1280" d="M250 2042v268h780v-268h-780z" />
<glyph unicode="&#xb0;" horiz-adv-x="1280" d="M250 1018v780h780v-780h-780zM518 1286h244v244h-244v-244z" />
<glyph unicode="&#xb1;" horiz-adv-x="1536" d="M250 -6v268h780v-268h-780zM250 762v268h256v256h268v-256h256v-268h-256v-256h-268v256h-256z" />
<glyph unicode="&#xb2;" horiz-adv-x="1536" d="M-6 250v524h256v256h768v244h-1024v268h1036v-256h256v-268h-256v-256h-768v-244h1024v-268h-1292z" />
<glyph unicode="&#xb3;" horiz-adv-x="1536" d="M-6 250v268h1024v244h-1024v268h1024v244h-1024v268h1036v-256h256v-268h-256v-244h256v-268h-256v-256h-1036z" />
<glyph unicode="&#xb4;" horiz-adv-x="768" d="M506 2042v268h256v256h268v-268h-256v-256h-268z" />
<glyph unicode="&#xb5;" horiz-adv-x="1536" d="M-6 -262v1804h268v-768h256v-256h244v1024h268v-1024h256v-268h-268v256h-244v-256h-268v256h-244v-768h-268z" />
<glyph unicode="&#xb6;" horiz-adv-x="1536" d="M-6 1018v524h256v256h1036v-1804h-268v768h-244v-768h-268v768h-256v256h-256zM262 1030h244v500h-244v-500zM774 1030h244v500h-244v-500z" />
<glyph unicode="&#xb7;" horiz-adv-x="512" d="M-6 762v268h268v-268h-268z" />
<glyph unicode="&#xb8;" horiz-adv-x="1024" d="M250 -250h256v256h268v-524h-524v268z" />
<glyph unicode="&#xb9;" horiz-adv-x="768" d="M-6 1018v268h256v256h268v-1292h-268v768h-256z" />
<glyph unicode="&#xba;" horiz-adv-x="1536" d="M-6 762v780h256v256h780v-256h256v-780h-256v-256h-780v256h-256zM262 774h756v756h-756v-756z" />
<glyph unicode="&#xbb;" horiz-adv-x="1536" d="M-6 250v268h256v244h-256v268h268v-256h256v-268h-256v-256h-268zM762 250v268h256v244h-256v268h268v-256h256v-268h-256v-256h-268z" />
<glyph unicode="&#xbc;" horiz-adv-x="3584" d="M-6 1018v268h256v256h268v-1292h-268v768h-256zM762 250v268h256v256h256v256h256v256h256v256h268v-268h-256v-256h-256v-256h-256v-256h-256v-256h-268zM2042 506v268h256v256h256v256h256v256h268v-768h256v-268h-256v-256h-268v256h-768zM2566 774h244v244h-244v-244 z" />
<glyph unicode="&#xbd;" horiz-adv-x="3840" d="M-6 1018v268h256v256h268v-1292h-268v768h-256zM762 250v268h256v256h256v256h256v256h256v256h268v-268h-256v-256h-256v-256h-256v-256h-256v-256h-268zM2298 250v524h256v256h768v244h-1024v268h1036v-256h256v-268h-256v-256h-768v-244h1024v-268h-1292z" />
<glyph unicode="&#xbe;" horiz-adv-x="4352" d="M-6 250v268h1024v244h-1024v268h1024v244h-1024v268h1036v-256h256v-268h-256v-244h256v-268h-256v-256h-1036zM1530 250v268h256v256h256v256h256v256h256v256h268v-268h-256v-256h-256v-256h-256v-256h-256v-256h-268zM2810 506v268h256v256h256v256h256v256h268v-768 h256v-268h-256v-256h-268v256h-768zM3334 774h244v244h-244v-244z" />
<glyph unicode="&#xbf;" horiz-adv-x="1536" d="M-6 250v524h256v256h512v256h268v-524h-768v-500h1024v-268h-1036v256h-256zM762 1530v268h268v-268h-268z" />
<glyph unicode="&#xc0;" d="M-6 -6v1292h256v256h256v256h524v-256h256v-256h256v-1292h-524v512h-500v-512h-524zM506 2298v268h268v-256h256v-268h-268v256h-256zM518 774h500v500h-500v-500z" />
<glyph unicode="&#xc1;" d="M-6 -6v1292h256v256h256v256h524v-256h256v-256h256v-1292h-524v512h-500v-512h-524zM506 2042v268h256v256h268v-268h-256v-256h-268zM518 774h500v500h-500v-500z" />
<glyph unicode="&#xc2;" d="M-6 -6v1292h256v256h256v256h524v-256h256v-256h256v-1292h-524v512h-500v-512h-524zM250 2042v268h256v256h268v-256h256v-268h-268v256h-244v-256h-268zM518 774h500v500h-500v-500z" />
<glyph unicode="&#xc3;" d="M-6 -6v1292h256v256h256v256h524v-256h256v-256h256v-1292h-524v512h-500v-512h-524zM250 2042v268h256v256h268v-256h244v256h268v-268h-256v-256h-268v256h-244v-256h-268zM518 774h500v500h-500v-500z" />
<glyph unicode="&#xc4;" horiz-adv-x="2048" d="M-6 -6v1292h256v256h256v256h524v-256h256v-256h256v-1292h-524v512h-500v-512h-524zM250 2042v268h268v-268h-268zM518 774h500v500h-500v-500zM762 2042v268h268v-268h-268z" />
<glyph unicode="&#xc5;" horiz-adv-x="2048" d="M-6 -6v1292h256v256h256v256h524v-256h256v-256h256v-1292h-524v512h-500v-512h-524zM506 2042v268h268v-268h-268zM518 774h500v500h-500v-500z" />
<glyph unicode="&#xc6;" horiz-adv-x="2816" d="M-6 -6v1292h256v256h256v256h524v-256h244v256h1292v-268h-1024v-500h1024v-268h-1024v-500h1024v-268h-1548v512h-500v-512h-524zM518 774h500v500h-500v-500z" />
<glyph unicode="&#xc7;" horiz-adv-x="2048" d="M-6 250v1292h256v256h1036v-256h256v-268h-524v256h-500v-1268h500v256h524v-268h-256v-256h-256v-512h-524v268h256v244h-512v256h-256z" />
<glyph unicode="&#xc8;" d="M-6 250v1292h256v256h1292v-268h-1024v-500h1024v-268h-1024v-500h1024v-268h-1292v256h-256zM506 2298v268h268v-256h256v-268h-268v256h-256z" />
<glyph unicode="&#xc9;" horiz-adv-x="2048" d="M-6 250v1292h256v256h1292v-268h-1024v-500h1024v-268h-1024v-500h1024v-268h-1292v256h-256zM506 2042v268h256v256h268v-268h-256v-256h-268z" />
<glyph unicode="&#xca;" d="M-6 250v1292h256v256h1292v-268h-1024v-500h1024v-268h-1024v-500h1024v-268h-1292v256h-256zM250 2042v268h256v256h268v-256h256v-268h-268v256h-244v-256h-268z" />
<glyph unicode="&#xcb;" d="M-6 250v1292h256v256h1292v-268h-1024v-500h1024v-268h-1024v-500h1024v-268h-1292v256h-256zM250 2042v268h268v-268h-268zM762 2042v268h268v-268h-268z" />
<glyph unicode="&#xcc;" horiz-adv-x="768" d="M-6 -6v1804h524v-1804h-524zM-6 2298v268h268v-256h256v-268h-268v256h-256z" />
<glyph unicode="&#xcd;" horiz-adv-x="768" d="M-6 -6v1804h524v-1804h-524zM-6 2042v268h256v256h268v-268h-256v-256h-268z" />
<glyph unicode="&#xce;" horiz-adv-x="768" d="M-6 -6v1804h524v-1804h-524zM-6 2042v268h256v256h268v-256h256v-268h-268v256h-244v-256h-268z" />
<glyph unicode="&#xcf;" horiz-adv-x="768" d="M-6 -6v1804h524v-1804h-524zM-6 2042v268h268v-268h-268zM506 2042v268h268v-268h-268z" />
<glyph unicode="&#xd0;" horiz-adv-x="2048" d="M-6 762v268h256v768h1292v-256h256v-1292h-256v-256h-1292v768h-256zM774 262h500v1268h-500v-500h256v-268h-256v-500z" />
<glyph unicode="&#xd1;" d="M-6 -6v1804h524v-512h256v-256h244v768h524v-1804h-524v512h-256v256h-244v-768h-524zM250 2042v268h256v256h268v-256h244v256h268v-268h-256v-256h-268v256h-244v-256h-268z" />
<glyph unicode="&#xd2;" d="M-6 250v1292h256v256h1036v-256h256v-1292h-256v-256h-1036v256h-256zM506 2298v268h268v-256h256v-268h-268v256h-256zM518 262h500v1268h-500v-1268z" />
<glyph unicode="&#xd3;" d="M-6 250v1292h256v256h1036v-256h256v-1292h-256v-256h-1036v256h-256zM506 2042v268h256v256h268v-268h-256v-256h-268zM518 262h500v1268h-500v-1268z" />
<glyph unicode="&#xd4;" d="M-6 250v1292h256v256h1036v-256h256v-1292h-256v-256h-1036v256h-256zM250 2042v268h256v256h268v-256h256v-268h-268v256h-244v-256h-268zM518 262h500v1268h-500v-1268z" />
<glyph unicode="&#xd5;" d="M-6 250v1292h256v256h1036v-256h256v-1292h-256v-256h-1036v256h-256zM250 2042v268h256v256h268v-256h244v256h268v-268h-256v-256h-268v256h-244v-256h-268zM518 262h500v1268h-500v-1268z" />
<glyph unicode="&#xd6;" d="M-6 250v1292h256v256h1036v-256h256v-1292h-256v-256h-1036v256h-256zM250 2042v268h268v-268h-268zM518 262h500v1268h-500v-1268zM762 2042v268h268v-268h-268z" />
<glyph unicode="&#xd7;" horiz-adv-x="1536" d="M-6 250v268h256v256h256v244h-256v256h-256v268h268v-256h256v-256h244v256h256v256h268v-268h-256v-256h-256v-244h256v-256h256v-268h-268v256h-256v256h-244v-256h-256v-256h-268z" />
<glyph unicode="&#xd8;" d="M-6 250v1292h256v256h1036v-256h256v-1292h-256v-256h-1036v256h-256zM518 262h500v500h-244v-256h-256v-244zM518 1030h244v256h256v244h-500v-500z" />
<glyph unicode="&#xd9;" d="M-6 250v1548h524v-1536h500v1536h524v-1548h-256v-256h-1036v256h-256zM506 2298v268h268v-256h256v-268h-268v256h-256z" />
<glyph unicode="&#xda;" d="M-6 250v1548h524v-1536h500v1536h524v-1548h-256v-256h-1036v256h-256zM506 2042v268h256v256h268v-268h-256v-256h-268z" />
<glyph unicode="&#xdb;" d="M-6 250v1548h524v-1536h500v1536h524v-1548h-256v-256h-1036v256h-256zM250 2042v268h256v256h268v-256h256v-268h-268v256h-244v-256h-268z" />
<glyph unicode="&#xdc;" d="M-6 250v1548h524v-1536h500v1536h524v-1548h-256v-256h-1036v256h-256zM250 2042v268h268v-268h-268zM762 2042v268h268v-268h-268z" />
<glyph unicode="&#xdd;" d="M-6 1018v780h524v-768h500v768h524v-780h-256v-256h-256v-768h-524v768h-256v256h-256zM506 2042v268h256v256h268v-268h-256v-256h-268z" />
<glyph unicode="&#xde;" d="M-6 -6v1548h268v-256h768v-256h256v-268h-256v-256h-768v-512h-268zM262 774h756v244h-756v-244z" />
<glyph unicode="&#xdf;" horiz-adv-x="1280" d="M-6 -262v1548h256v256h524v-256h256v-268h-256v-244h256v-524h-256v-256h-512v-256h-268zM262 262h500v500h-500v-500zM262 1030h500v244h-500v-244z" />
<glyph unicode="&#xe0;" d="M-6 250v268h256v256h768v244h-768v268h1036v-256h256v-1036h-1292v256h-256zM506 1786v268h268v-256h256v-268h-268v256h-256zM518 262h500v244h-500v-244z" />
<glyph unicode="&#xe1;" d="M-6 250v268h256v256h768v244h-768v268h1036v-256h256v-1036h-1292v256h-256zM506 1530v268h256v256h268v-268h-256v-256h-268zM518 262h500v244h-500v-244z" />
<glyph unicode="&#xe2;" d="M-6 250v268h256v256h768v244h-768v268h1036v-256h256v-1036h-1292v256h-256zM250 1530v268h256v256h268v-256h256v-268h-268v256h-244v-256h-268zM518 262h500v244h-500v-244z" />
<glyph unicode="&#xe3;" d="M-6 250v268h256v256h768v244h-768v268h1036v-256h256v-1036h-1292v256h-256zM250 1530v268h256v256h268v-256h244v256h268v-268h-256v-256h-268v256h-244v-256h-268zM518 262h500v244h-500v-244z" />
<glyph unicode="&#xe4;" d="M-6 250v268h256v256h768v244h-768v268h1036v-256h256v-1036h-1292v256h-256zM250 1530v268h268v-268h-268zM518 262h500v244h-500v-244zM762 1530v268h268v-268h-268z" />
<glyph unicode="&#xe5;" d="M-6 250v268h256v256h768v244h-768v268h1036v-256h256v-1036h-1292v256h-256zM506 1530v268h268v-268h-268zM518 262h500v244h-500v-244z" />
<glyph unicode="&#xe6;" horiz-adv-x="2816" d="M-6 250v268h256v256h768v244h-768v268h2060v-256h256v-524h-1024v-244h1024v-268h-2316v256h-256zM518 262h500v244h-500v-244zM1542 774h500v244h-500v-244z" />
<glyph unicode="&#xe7;" d="M-6 250v780h256v256h1292v-268h-1024v-756h1024v-268h-512v-512h-524v268h256v244h-512v256h-256z" />
<glyph unicode="&#xe8;" d="M-6 250v780h256v256h1036v-256h256v-524h-1024v-244h768v-268h-1036v256h-256zM506 1786v268h268v-256h256v-268h-268v256h-256zM518 774h500v244h-500v-244z" />
<glyph unicode="&#xe9;" d="M-6 250v780h256v256h1036v-256h256v-524h-1024v-244h768v-268h-1036v256h-256zM506 1530v268h256v256h268v-268h-256v-256h-268zM518 774h500v244h-500v-244z" />
<glyph unicode="&#xea;" d="M-6 250v780h256v256h1036v-256h256v-524h-1024v-244h768v-268h-1036v256h-256zM250 1530v268h256v256h268v-256h256v-268h-268v256h-244v-256h-268zM518 774h500v244h-500v-244z" />
<glyph unicode="&#xeb;" d="M-6 250v780h256v256h1036v-256h256v-524h-1024v-244h768v-268h-1036v256h-256zM250 1530v268h268v-268h-268zM518 774h500v244h-500v-244zM762 1530v268h268v-268h-268z" />
<glyph unicode="&#xec;" horiz-adv-x="1024" d="M-6 -6v1292h524v-1292h-524zM-6 1786v268h268v-256h256v-268h-268v256h-256z" />
<glyph unicode="&#xed;" horiz-adv-x="1024" d="M-6 -6v1292h524v-1292h-524zM-6 1530v268h256v256h268v-268h-256v-256h-268z" />
<glyph unicode="&#xee;" horiz-adv-x="1280" d="M-6 -6v1292h524v-1292h-524zM-6 1530v268h256v256h268v-256h256v-268h-268v256h-244v-256h-268z" />
<glyph unicode="&#xef;" horiz-adv-x="1280" d="M-6 -6v1292h524v-1292h-524zM-6 1530v268h268v-268h-268zM506 1530v268h268v-268h-268z" />
<glyph unicode="&#xf1;" d="M-6 -6v1292h1292v-256h256v-1036h-524v1024h-500v-1024h-524zM250 1530v268h256v256h268v-256h244v256h268v-268h-256v-256h-268v256h-244v-256h-268z" />
<glyph unicode="&#xf2;" d="M-6 250v780h256v256h1036v-256h256v-780h-256v-256h-1036v256h-256zM506 1786v268h268v-256h256v-268h-268v256h-256zM518 262h500v756h-500v-756z" />
<glyph unicode="&#xf3;" d="M-6 250v780h256v256h1036v-256h256v-780h-256v-256h-1036v256h-256zM506 1530v268h256v256h268v-268h-256v-256h-268zM518 262h500v756h-500v-756z" />
<glyph unicode="&#xf4;" d="M-6 250v780h256v256h1036v-256h256v-780h-256v-256h-1036v256h-256zM250 1530v268h256v256h268v-256h256v-268h-268v256h-244v-256h-268zM518 262h500v756h-500v-756z" />
<glyph unicode="&#xf5;" d="M-6 250v780h256v256h1036v-256h256v-780h-256v-256h-1036v256h-256zM250 1530v268h256v256h268v-256h244v256h268v-268h-256v-256h-268v256h-244v-256h-268zM518 262h500v756h-500v-756z" />
<glyph unicode="&#xf6;" d="M-6 250v780h256v256h1036v-256h256v-780h-256v-256h-1036v256h-256zM250 1530v268h268v-268h-268zM518 262h500v756h-500v-756zM762 1530v268h268v-268h-268z" />
<glyph unicode="&#xf7;" horiz-adv-x="1536" d="M-6 762v268h1292v-268h-1292zM506 250v268h268v-268h-268zM506 1274v268h268v-268h-268z" />
<glyph unicode="&#xf8;" horiz-adv-x="1536" d="M-6 250v780h256v256h1036v-256h256v-780h-256v-256h-1036v256h-256zM518 262h500v244h-500v-244zM518 774h500v244h-500v-244z" />
<glyph unicode="&#xf9;" d="M-6 250v1036h524v-1024h500v1024h524v-1292h-1292v256h-256zM506 1786v268h268v-256h256v-268h-268v256h-256z" />
<glyph unicode="&#xfa;" d="M-6 250v1036h524v-1024h500v1024h524v-1292h-1292v256h-256zM506 1530v268h256v256h268v-268h-256v-256h-268z" />
<glyph unicode="&#xfb;" d="M-6 250v1036h524v-1024h500v1024h524v-1292h-1292v256h-256zM250 1530v268h256v256h268v-256h256v-268h-268v256h-244v-256h-268z" />
<glyph unicode="&#xfc;" d="M-6 250v1036h524v-1024h500v1024h524v-1292h-1292v256h-256zM250 1530v268h268v-268h-268zM762 1530v268h268v-268h-268z" />
<glyph unicode="&#xfd;" d="M-6 250v1036h524v-1024h500v1024h524v-1548h-256v-256h-1036v268h768v244h-768v256h-256zM506 1530v268h256v256h268v-268h-256v-256h-268z" />
<glyph unicode="&#xfe;" d="M-6 -6v1292h268v-256h768v-256h256v-268h-256v-256h-768v-256h-268zM262 518h756v244h-756v-244z" />
<glyph unicode="&#xff;" d="M-6 250v1036h524v-1024h500v1024h524v-1548h-256v-256h-1036v268h768v244h-768v256h-256zM250 1530v268h268v-268h-268zM762 1530v268h268v-268h-268z" />
<glyph unicode="&#x152;" horiz-adv-x="2560" d="M-6 250v1292h256v256h2060v-268h-768v-500h768v-268h-768v-500h768v-268h-2060v256h-256zM518 262h500v1268h-500v-1268z" />
<glyph unicode="&#x153;" horiz-adv-x="2816" d="M-6 250v780h256v256h2060v-256h256v-268h-256v-256h-768v-244h768v-268h-2060v256h-256zM518 262h500v756h-500v-756zM1542 774h500v244h-500v-244z" />
<glyph unicode="&#x178;" d="M-6 1018v780h524v-768h500v768h524v-780h-256v-256h-256v-768h-524v768h-256v256h-256zM250 2042v268h268v-268h-268zM762 2042v268h268v-268h-268z" />
<glyph unicode="&#x2c6;" horiz-adv-x="1280" d="M250 2042v268h256v256h268v-256h256v-268h-268v256h-244v-256h-268z" />
<glyph unicode="&#x2dc;" horiz-adv-x="1280" d="M250 2042v268h256v256h268v-256h244v256h268v-268h-256v-256h-268v256h-244v-256h-268z" />
<glyph unicode="&#x2000;" horiz-adv-x="1283" />
<glyph unicode="&#x2001;" horiz-adv-x="2566" />
<glyph unicode="&#x2002;" horiz-adv-x="1283" />
<glyph unicode="&#x2003;" horiz-adv-x="2566" />
<glyph unicode="&#x2004;" horiz-adv-x="855" />
<glyph unicode="&#x2005;" horiz-adv-x="641" />
<glyph unicode="&#x2006;" horiz-adv-x="427" />
<glyph unicode="&#x2007;" horiz-adv-x="427" />
<glyph unicode="&#x2008;" horiz-adv-x="320" />
<glyph unicode="&#x2009;" horiz-adv-x="513" />
<glyph unicode="&#x200a;" horiz-adv-x="142" />
<glyph unicode="&#x2010;" horiz-adv-x="1280" d="M250 762v268h780v-268h-780z" />
<glyph unicode="&#x2011;" horiz-adv-x="1280" d="M250 762v268h780v-268h-780z" />
<glyph unicode="&#x2012;" horiz-adv-x="1280" d="M250 762v268h780v-268h-780z" />
<glyph unicode="&#x2013;" horiz-adv-x="1536" d="M250 506v268h1036v-268h-1036z" />
<glyph unicode="&#x2014;" d="M-6 506v268h1548v-268h-1548z" />
<glyph unicode="&#x2018;" horiz-adv-x="512" d="M-6 1274v524h268v-524h-268z" />
<glyph unicode="&#x2019;" horiz-adv-x="512" d="M-6 1274v524h268v-524h-268z" />
<glyph unicode="&#x201a;" horiz-adv-x="512" d="M-6 -262v524h268v-524h-268z" />
<glyph unicode="&#x201c;" horiz-adv-x="1024" d="M-6 1274v524h268v-524h-268zM506 1274v524h268v-524h-268z" />
<glyph unicode="&#x201d;" horiz-adv-x="1024" d="M-6 1274v524h268v-524h-268zM506 1274v524h268v-524h-268z" />
<glyph unicode="&#x201e;" horiz-adv-x="1024" d="M-6 -262v524h268v-524h-268zM506 -262v524h268v-524h-268z" />
<glyph unicode="&#x2022;" horiz-adv-x="1280" d="M250 506v780h780v-780h-780z" />
<glyph unicode="&#x2026;" horiz-adv-x="1536" d="M-6 -6v268h268v-268h-268zM506 -6v268h268v-268h-268zM1018 -6v268h268v-268h-268z" />
<glyph unicode="&#x202f;" horiz-adv-x="513" />
<glyph unicode="&#x2039;" horiz-adv-x="768" d="M-6 506v268h256v256h268v-268h-256v-244h256v-268h-268v256h-256z" />
<glyph unicode="&#x203a;" horiz-adv-x="768" d="M-6 250v268h256v244h-256v268h268v-256h256v-268h-256v-256h-268z" />
<glyph unicode="&#x205f;" horiz-adv-x="641" />
<glyph unicode="&#x20ac;" horiz-adv-x="1536" d="M-262 506v268h256v244h-256v268h256v256h256v256h780v-256h256v-268h-268v256h-756v-244h512v-268h-512v-244h512v-268h-512v-244h756v256h268v-268h-256v-256h-780v256h-256v256h-256z" />
<glyph unicode="&#x2122;" horiz-adv-x="2560" d="M-6 1530v268h780v-268h-256v-512h-268v512h-256zM1018 1018v780h1292v-780h-268v512h-244v-512h-268v512h-244v-512h-268z" />
<glyph unicode="&#x25fc;" horiz-adv-x="1290" d="M0 0v1290h1290v-1290h-1290z" />
<glyph unicode="&#xfb01;" horiz-adv-x="1280" d="M-6 762v268h256v512h256v256h780v-268h-768v-500h500v256h268v-1292h-268v768h-500v-768h-268v768h-256z" />
<glyph unicode="&#xfb02;" horiz-adv-x="1280" d="M-6 762v268h256v512h256v256h780v-268h-768v-500h500v256h268v-1292h-268v768h-500v-768h-268v768h-256z" />
</font>
</defs>
</svg>
